Patient4_TMGait_0pt4_01_left_39_EMG.mot
version=1
nRows=33
nColumns=33
inDegrees=no
endheader
time	1LAddLong	2LGlutMax	3LGlutMed	4LIliopsoas	5LSemiMemb	6LBicFemLong	7LRecFem	8LVastMed	9LVastLat	10LGasMed	11LTibAnt	12lTibPost	13LPeroneusLong	14LSol	15LExtDigLong	16LFlexDigLong	17RAddLong	18RGlutMax	19RGlutMed	20RIliopsoas	21RSemiMemb	22RBicFemLong	23RRecFem	24RVastMed	25RVastLat	26RGasMed	27RTibAnt	28RTibPost	29RPeroneusLong	30RSol	31RExtDigLong	32RFlexDigLong
50.283	0.016022	-0.020905	-0.10437	0.010529	-0.008698	-0.048218	-0.11154	0.003204	0.051422	-0.042267	0.02121	0.006561	-0.041962	0.050659	-0.013733	-0.002289	0.000916	0.075531	-0.49545	0.10864	0.020447	-0.13062	-0.30243	0.042572	0.23331	-0.036163	-0.067902	-0.027618	-0.54642	0.40131	0.013275	-0.006409
50.284	0.006104	-0.015869	-0.084686	-0.000153	0.020294	-0.026703	-0.13046	0.001831	0.061493	-0.059357	0.009308	-0.001068	-0.02655	0.030365	-0.41458	0.014343	0.00412	0.2121	0.48782	-0.082703	-0.001678	0.0177	-0.083771	0.07309	0.15228	-0.018921	-0.078583	-0.022583	0.52078	0.47302	0.012512	-0.011139
50.285	0.010071	-0.032501	-0.028992	-0.003052	0.023499	0.017853	-0.12528	0.00412	0.050507	-0.049744	0.002594	0.005951	-0.074005	0.014954	-0.20355	0.007019	0.030518	0.09491	0.60043	-0.096436	-0.030975	0.27374	0.13275	0.054474	0.03952	0.03067	-0.09903	0.006409	0.62424	0.027771	0.015717	-0.012665
50.286	0.00473	-0.09201	0.12466	0.016632	0.018311	0.056305	-0.11627	0.007019	0.038147	-0.014191	0.016174	0.00351	-0.045471	0.010376	-0.16113	-0.000153	0.02594	0.051117	0.12955	-0.027771	-0.039978	0.19852	0.090027	0.019836	0.001984	0.048981	-0.083618	0.00885	-0.44617	-0.28732	0.016327	-0.010376
50.287	-0.002899	-0.11643	0.15671	0.002136	-0.006256	0.073242	-0.11429	0.006714	0.037079	0.003662	0.001221	0.010071	-0.037537	0.016632	-0.085144	0.001373	0.002289	0.062561	0.23483	-0.029602	0.042267	0.023346	0.067291	0.10727	0.058289	0.040741	0.05249	-0.012817	0.12863	-0.33066	0.014648	-0.011292
50.288	0.000305	-0.14023	0.089264	-0.00885	-0.071869	0.090027	-0.11917	0.004578	0.027924	-0.001678	0.002441	-0.001678	-0.045166	0.061951	-0.029602	-0.000458	0.023041	0.052643	-0.62851	-0.029907	0.28503	0.003662	0.10468	0.057983	0.00351	0.034637	0.11566	0.041199	-0.40253	-0.18707	0.014191	-0.016022
50.289	-0.002747	-0.079956	0.11093	0.008545	-0.13916	0.072784	-0.10056	0.010376	0.03891	-0.020447	-0.004425	0.010834	-0.087128	0.034332	0.012054	0.002136	0.024567	0.023956	-0.20065	-0.12192	0.30945	0.27054	-0.005188	0.085297	0.020294	0.009613	0.044098	-0.014954	-0.76904	-0.10788	0.015564	-0.010223
50.29	-0.007629	-0.063629	0.055695	0.019684	-0.07782	0.026398	-0.10086	0.006104	0.041809	-0.027008	0.039215	-0.00061	-0.061493	0.071869	0.012512	0.005188	0.038757	0.058594	0.30487	-0.11169	0.29633	0.39002	0.010681	-0.018311	0.04425	0.003967	0.074158	-0.021515	-0.70358	-0.081177	0.016632	-0.00473
50.291	-0.003662	-0.061188	0.022736	-0.010834	0.041046	0.018616	-0.10391	0.007324	0.043182	-0.016785	0.008698	0.000305	-0.089417	0.02243	-0.033569	-0.000916	0.030518	-0.03006	-0.080414	-0.030823	-0.39764	0.41061	-0.06012	-0.055389	0.03006	-0.008698	0.000916	-0.028992	-0.23224	-0.007629	0.014496	-0.013733
50.292	0.007172	-0.047455	-0.004425	0.01297	0.047607	0.015259	-0.10178	0.013275	0.040741	-0.015106	-0.087585	0.007477	-0.063324	0.027771	-0.018616	0.002899	0.020752	-0.091095	-0.22171	-0.021973	-0.66559	0.38834	-0.076141	-0.1152	0.026245	0.008698	-0.17395	-0.022583	-0.29419	-0.071106	0.012054	-0.009155
50.293	-0.00061	-0.057373	-0.027924	0.013428	0.034027	0.04425	-0.10178	0.00473	0.050507	-0.024261	-0.16693	0.003967	-0.07782	0.040741	-0.019989	0.005646	0.016022	-0.086975	-0.11154	-0.018158	-0.41351	0.28488	-0.004883	-0.050812	0.00885	-0.007324	0.059814	-0.02121	0.028534	-0.1001	0.007324	-0.012817
50.294	0.005035	-0.055237	-0.048523	0.012512	0.023956	0.036316	-0.10086	-0.001068	0.049591	-0.020294	-0.11765	0.009766	-0.090332	0.028839	0.13107	0.002747	0.008545	-0.11246	-0.008698	-0.005798	0.21286	0.1239	0.00946	-0.028839	-0.023499	-0.025635	0.08316	-0.025787	-0.46295	-0.16861	0.015869	-0.014038
50.295	0.003357	-0.051727	-0.050201	0.010071	0.018616	0.028534	-0.087891	-0.005493	0.046997	-0.023041	-0.019989	0.007935	-0.061493	0.038605	0.31326	0.005493	0.003815	-0.13809	0.017853	0.037689	0.28976	0.031738	0.089722	-0.07431	-0.032806	-0.10361	0.023804	-0.031128	0.14771	-0.027161	0.018768	-0.01297
50.296	0.001984	-0.053101	-0.008545	0.016174	0.009308	0.032196	-0.090332	0.006104	0.046997	-0.04837	0.030823	0.006561	-0.019684	0.032349	0.011139	0.002594	-0.014343	-0.17151	-0.11108	0.039063	-0.065918	-0.26749	0.10376	-0.21194	-0.071106	-0.045471	0.10559	-0.039368	0.17349	0.1033	0.010681	-0.001984
50.297	-0.003815	-0.089111	0.014496	0.000305	-0.005798	0.034485	-0.099182	0.004883	0.055542	-0.029602	0.08255	0.003204	-0.079498	0.040283	-0.029755	0.007019	-0.030975	-0.25162	0.009308	0.028229	-0.3775	-0.16403	0.061951	-0.037689	-0.083313	-0.076447	0.19211	-0.018921	0.013428	0.077515	0.011902	-0.006561
50.298	0.010834	-0.077209	0.036774	0.018311	-0.02655	0.035095	-0.073853	0.009155	0.040436	-0.020142	0.11368	0.003815	-0.072021	0.028229	-0.090942	-0.001678	-0.038605	-0.27802	0.45349	-0.00824	-0.37994	-0.064697	-0.018463	-0.11429	-0.03418	-0.07843	0.044556	-0.039673	0.2475	0.056305	0.016174	-0.00412
50.299	0.005341	-0.082855	0.028534	-0.001221	0.001068	0.011597	-0.089264	0.003357	0.035095	-0.018005	0.16174	0.005035	-0.076752	0.019684	-0.088348	-0.00412	-0.04364	-0.2803	0.63568	0.031738	0.2327	-0.064392	-0.012817	0.017853	-0.050354	-0.11292	-0.01358	-0.17425	0.009308	0.089264	0.014191	-0.009155
50.3	0.000153	-0.069427	-0.026703	-0.016174	-0.03952	0.01709	-0.069885	0.007324	0.046692	-0.028687	0.15396	0.004578	-0.085602	0.006409	-0.10986	-0.003204	-0.03067	-0.35736	0.082397	0.02121	0.51254	-0.10391	0.073853	0.13534	-0.074158	-0.082703	-0.027161	-0.013885	-0.112	0.003967	0.011749	-0.009003
50.301	-0.010834	-0.065308	-0.076599	0.014801	-0.044098	0.036926	-0.091095	0.00946	0.030975	-0.039368	0.12344	0.005493	-0.10284	-0.04776	-0.001373	-0.004425	-0.015106	-0.33005	-0.33203	0.057526	0.20401	-0.1326	0.22476	0.15076	-0.06897	-0.029297	-0.049591	0.28854	-0.19806	-0.33325	0.012665	-0.016479
50.302	-0.011902	-0.05722	-0.13031	0.015717	-0.072784	0.04776	-0.076599	0.004883	0.029755	-0.035095	-0.012054	0.007172	-0.11124	-0.038452	0.036469	0.007477	0	-0.35889	-0.63156	0.055847	0.083008	-0.159	0.27863	0.14328	-0.06546	0.024414	-0.005188	0.028381	-0.16098	-0.31479	0.00885	-0.015564
50.303	-0.012817	-0.057678	-0.1294	0.001221	-0.11383	0.019531	-0.079498	0.003662	0.038147	-0.021515	-0.12039	0.005493	-0.10468	-0.015411	-0.006409	0.000458	-0.007019	-0.33829	-0.4126	0.067291	0.07431	-0.15991	0.18539	0.11368	-0.066681	0.14832	0.039215	-0.13001	0.12375	-0.001678	0.012817	-0.023193
50.304	0.019226	-0.042267	-0.054779	-0.013733	0.006409	-0.026093	-0.088959	0.000153	0.040894	-0.023346	-0.067291	0.002441	-0.1062	-0.023193	-0.0177	-0.007782	0.001678	-0.27588	-0.061798	0.050354	0.061188	-0.11902	0.001221	0.055237	-0.04364	0.083618	0.046387	0.11032	0.52017	0.62546	0.007019	-0.013428
50.305	0.022736	-0.058136	0.016479	-0.002441	0.12299	-0.085602	-0.082397	-0.001984	0.034485	-0.03006	-0.040131	0.003662	-0.093689	-0.030975	-0.023651	0.002289	0.007019	-0.31876	0.34821	0.032501	0.031891	-0.020752	-0.14236	0.03952	-0.001831	0.036163	0.094299	0.076294	0.064087	0.39276	0.00885	-0.0177
50.306	0.035248	-0.077362	0.015869	-0.005341	0.077515	-0.036316	-0.08194	-0.000153	0.026245	-0.032806	-0.008545	-0.002136	-0.10056	-0.010986	-0.01297	-0.011749	0.002594	-0.42511	0.15778	0.047455	0.024567	0.074615	-0.19623	0.056305	0.025635	0.0383	0.081329	-0.027771	0.5719	0.13229	0.01297	-0.015106
50.307	0.017548	-0.083008	0.051727	-0.011902	0.04303	0.026703	-0.06897	0.006256	0.025024	-0.031281	0.048065	0.001526	-0.11108	-0.023193	-0.009766	-0.013733	0.007782	-0.41901	-0.27069	0.06012	0.02243	-0.004272	0.007477	-0.033722	0.037079	0.019989	0.030518	-0.041962	0.47623	-0.000458	0.010986	-0.000916
50.308	0.021515	-0.076599	0.13428	0.006409	0.001526	0.031281	-0.054321	0.005646	0.018921	-0.034943	0.066071	0.007172	-0.11734	-0.010986	-0.014343	-0.00351	0.027313	-0.36636	-0.049896	0.022125	0	-0.015564	0.13428	-0.1619	-0.047607	0.032501	0.072632	-0.017548	-1.0303	0.065308	0.005493	-0.002594
50.309	0.015106	-0.10101	-0.045166	0.019989	-0.001526	0.026093	-0.041656	0.004272	0.025787	-0.022583	0.077209	0.004578	-0.10178	-0.006409	-0.000916	-0.008392	0.029755	-0.33188	0.041962	0.027161	-0.022583	-0.015869	0.055847	-0.16281	-0.028381	0.046082	0.001526	0.004425	0.13229	-0.06012	0.010223	-0.002136
50.31	0.015106	-0.11383	-0.067444	0.016632	-0.00412	0.023346	-0.031586	0.005341	0.041809	-0.051575	0.053864	-0.011292	-0.054779	-0.01709	0.064087	-0.015259	0.00885	-0.42633	-0.083008	-0.000153	-0.021362	0.008087	0.027008	-0.10788	0.008392	0.026245	0.04425	-0.002289	0.28885	-0.018768	0.011597	-0.00412
50.311	0.006866	-0.10162	-0.023193	-0.010529	-0.004883	0.021973	-0.042725	0.003815	0.040283	-0.04425	-0.071716	-0.002747	-0.032806	0.016937	0.089722	-0.01297	0.006561	-0.41473	-0.18616	0.050201	-0.021667	0.016479	0.091858	-0.077362	0.006104	0.026855	0.041199	-0.00946	-0.522	-0.22812	0.009308	-0.002594
50.312	0.003662	-0.10468	0.005646	0.005646	-0.015259	0.042267	-0.033569	0.004272	0.022736	-0.029144	-0.030823	0.001526	-0.045319	0.029755	0.092926	-0.017853	0.024261	-0.392	0.14999	-0.02121	-0.026093	-0.011139	0.12787	-0.014496	0.01297	0.019836	-0.027924	-0.011902	0.51514	-0.13397	0.006866	-0.008392
50.313	0.014038	-0.11673	0.032501	0.014496	-0.014954	0.036774	-0.020294	0.00885	0.04364	-0.016785	0.037079	-0.006714	-0.073547	0.037994	0.089569	-0.014191	0.049744	-0.39307	0.2124	-0.036469	-0.042725	-0.043793	0.074768	-0.002899	0.084991	-0.00061	0.064697	-0.014648	0.98297	-0.052948	0.006561	-0.007782
50.314	0.004883	-0.083313	-0.040283	0.009155	-0.016327	0.048828	-0.032654	0.004883	0.053558	-0.018311	-0.025024	-0.002899	-0.051727	0.018463	0.069122	-0.019379	0.093842	-0.44983	0.14847	0.013733	-0.16403	-0.10788	0.20508	-0.057831	0.055847	-0.028534	0.11047	-0.039825	0.77988	0.060577	0.000763	-0.010376
50.315	0.00351	-0.087891	-0.04715	0.007172	-0.016174	0.046234	-0.019073	0.011292	0.062408	-0.027466	-0.012817	-0.001678	-0.03067	-0.008545	0.024719	-0.012512	0.086212	-0.42191	0.15686	0.054626	0.024414	-0.17197	0.1503	-0.13245	-0.011902	-0.039368	-0.10422	-0.097351	0.28778	0.026398	-0.001678	-0.011292
